<?xml version="1.0" encoding="UTF-8" standalone="no"?>
<!-- Created with Inkscape (http://www.inkscape.org/) -->

<svg
   version="1.1"
   id="svg1"
   width="500"
   height="500"
   viewBox="0 0 500 500"
   sodipodi:docname="tomorrow-night-theme.svg"
   inkscape:version="1.3 (0e150ed6c4, 2023-07-21)"
   xmlns:inkscape="http://www.inkscape.org/namespaces/inkscape"
   xmlns:sodipodi="http://sodipodi.sourceforge.net/DTD/sodipodi-0.dtd"
   xmlns="http://www.w3.org/2000/svg"
   xmlns:svg="http://www.w3.org/2000/svg">
  <defs
     id="defs1">
    <filter
       id="mask-powermask-path-effect23_inverse"
       inkscape:label="filtermask-powermask-path-effect23"
       style="color-interpolation-filters:sRGB"
       height="100"
       width="100"
       x="-50"
       y="-50">
      <feColorMatrix
         id="mask-powermask-path-effect23_primitive1"
         values="1"
         type="saturate"
         result="fbSourceGraphic" />
      <feColorMatrix
         id="mask-powermask-path-effect23_primitive2"
         values="-1 0 0 0 1 0 -1 0 0 1 0 0 -1 0 1 0 0 0 1 0 "
         in="fbSourceGraphic" />
    </filter>
    <filter
       id="mask-powermask-path-effect24_inverse"
       inkscape:label="filtermask-powermask-path-effect24"
       style="color-interpolation-filters:sRGB"
       height="100"
       width="100"
       x="-50"
       y="-50">
      <feColorMatrix
         id="mask-powermask-path-effect24_primitive1"
         values="1"
         type="saturate"
         result="fbSourceGraphic" />
      <feColorMatrix
         id="mask-powermask-path-effect24_primitive2"
         values="-1 0 0 0 1 0 -1 0 0 1 0 0 -1 0 1 0 0 0 1 0 "
         in="fbSourceGraphic" />
    </filter>
    <filter
       id="mask-powermask-path-effect25_inverse"
       inkscape:label="filtermask-powermask-path-effect25"
       style="color-interpolation-filters:sRGB"
       height="100"
       width="100"
       x="-50"
       y="-50">
      <feColorMatrix
         id="mask-powermask-path-effect25_primitive1"
         values="1"
         type="saturate"
         result="fbSourceGraphic" />
      <feColorMatrix
         id="mask-powermask-path-effect25_primitive2"
         values="-1 0 0 0 1 0 -1 0 0 1 0 0 -1 0 1 0 0 0 1 0 "
         in="fbSourceGraphic" />
    </filter>
    <filter
       id="mask-powermask-path-effect29_inverse"
       inkscape:label="filtermask-powermask-path-effect29"
       style="color-interpolation-filters:sRGB"
       height="100"
       width="100"
       x="-50"
       y="-50">
      <feColorMatrix
         id="mask-powermask-path-effect29_primitive1"
         values="1"
         type="saturate"
         result="fbSourceGraphic" />
      <feColorMatrix
         id="mask-powermask-path-effect29_primitive2"
         values="-1 0 0 0 1 0 -1 0 0 1 0 0 -1 0 1 0 0 0 1 0 "
         in="fbSourceGraphic" />
    </filter>
    <filter
       id="mask-powermask-path-effect30_inverse"
       inkscape:label="filtermask-powermask-path-effect30"
       style="color-interpolation-filters:sRGB"
       height="100"
       width="100"
       x="-50"
       y="-50">
      <feColorMatrix
         id="mask-powermask-path-effect30_primitive1"
         values="1"
         type="saturate"
         result="fbSourceGraphic" />
      <feColorMatrix
         id="mask-powermask-path-effect30_primitive2"
         values="-1 0 0 0 1 0 -1 0 0 1 0 0 -1 0 1 0 0 0 1 0 "
         in="fbSourceGraphic" />
    </filter>
    <filter
       id="mask-powermask-path-effect31_inverse"
       inkscape:label="filtermask-powermask-path-effect31"
       style="color-interpolation-filters:sRGB"
       height="100"
       width="100"
       x="-50"
       y="-50">
      <feColorMatrix
         id="mask-powermask-path-effect31_primitive1"
         values="1"
         type="saturate"
         result="fbSourceGraphic" />
      <feColorMatrix
         id="mask-powermask-path-effect31_primitive2"
         values="-1 0 0 0 1 0 -1 0 0 1 0 0 -1 0 1 0 0 0 1 0 "
         in="fbSourceGraphic" />
    </filter>
    <filter
       id="mask-powermask-path-effect34_inverse"
       inkscape:label="filtermask-powermask-path-effect34"
       style="color-interpolation-filters:sRGB"
       height="100"
       width="100"
       x="-50"
       y="-50">
      <feColorMatrix
         id="mask-powermask-path-effect34_primitive1"
         values="1"
         type="saturate"
         result="fbSourceGraphic" />
      <feColorMatrix
         id="mask-powermask-path-effect34_primitive2"
         values="-1 0 0 0 1 0 -1 0 0 1 0 0 -1 0 1 0 0 0 1 0 "
         in="fbSourceGraphic" />
    </filter>
    <filter
       id="mask-powermask-path-effect35_inverse"
       inkscape:label="filtermask-powermask-path-effect35"
       style="color-interpolation-filters:sRGB"
       height="100"
       width="100"
       x="-50"
       y="-50">
      <feColorMatrix
         id="mask-powermask-path-effect35_primitive1"
         values="1"
         type="saturate"
         result="fbSourceGraphic" />
      <feColorMatrix
         id="mask-powermask-path-effect35_primitive2"
         values="-1 0 0 0 1 0 -1 0 0 1 0 0 -1 0 1 0 0 0 1 0 "
         in="fbSourceGraphic" />
    </filter>
    <filter
       id="mask-powermask-path-effect36_inverse"
       inkscape:label="filtermask-powermask-path-effect36"
       style="color-interpolation-filters:sRGB"
       height="100"
       width="100"
       x="-50"
       y="-50">
      <feColorMatrix
         id="mask-powermask-path-effect36_primitive1"
         values="1"
         type="saturate"
         result="fbSourceGraphic" />
      <feColorMatrix
         id="mask-powermask-path-effect36_primitive2"
         values="-1 0 0 0 1 0 -1 0 0 1 0 0 -1 0 1 0 0 0 1 0 "
         in="fbSourceGraphic" />
    </filter>
    <filter
       id="mask-powermask-path-effect38_inverse"
       inkscape:label="filtermask-powermask-path-effect38"
       style="color-interpolation-filters:sRGB"
       height="100"
       width="100"
       x="-50"
       y="-50">
      <feColorMatrix
         id="mask-powermask-path-effect38_primitive1"
         values="1"
         type="saturate"
         result="fbSourceGraphic" />
      <feColorMatrix
         id="mask-powermask-path-effect38_primitive2"
         values="-1 0 0 0 1 0 -1 0 0 1 0 0 -1 0 1 0 0 0 1 0 "
         in="fbSourceGraphic" />
    </filter>
    <clipPath
       clipPathUnits="userSpaceOnUse"
       id="clipPath41">
      <path
         sodipodi:type="star"
         style="mix-blend-mode:normal;fill:#81a2be;fill-opacity:1;stroke:none;stroke-width:15.1181;paint-order:stroke fill markers"
         id="path42"
         inkscape:flatsided="true"
         sodipodi:sides="6"
         sodipodi:cx="-531.7323"
         sodipodi:cy="43.376198"
         sodipodi:r1="224.2412"
         sodipodi:r2="194.19856"
         sodipodi:arg1="0.52359878"
         sodipodi:arg2="1.0471976"
         inkscape:rounded="0"
         inkscape:randomized="0"
         transform="matrix(1.0041268,0,0,1.0041268,783.92665,1108.6969)"
         d="m -337.53373,155.4968 -194.19857,112.12059 -194.19857,-112.1206 0,-224.241191 194.19857,-112.120599 194.19857,112.120601 z" />
    </clipPath>
    <clipPath
       clipPathUnits="userSpaceOnUse"
       id="clipPath6">
      <path
         sodipodi:type="star"
         style="fill:#00ffff;fill-opacity:1;stroke:none;stroke-width:15.1181;paint-order:stroke fill markers"
         id="path8"
         inkscape:flatsided="true"
         sodipodi:sides="6"
         sodipodi:cx="-531.7323"
         sodipodi:cy="43.376198"
         sodipodi:r1="224.2412"
         sodipodi:r2="194.19856"
         sodipodi:arg1="0.52359878"
         sodipodi:arg2="1.0471976"
         inkscape:rounded="0"
         inkscape:randomized="0"
         d="m -337.53373,155.4968 -194.19857,112.12059 -194.19857,-112.1206 0,-224.241191 194.19857,-112.120599 194.19857,112.120601 z"
         transform="matrix(0.77902919,0,0,0.77902919,367.2567,1081.0671)" />
    </clipPath>
    <clipPath
       clipPathUnits="userSpaceOnUse"
       id="clipPath7">
      <path
         id="path7"
         style="fill:#1d1f21;fill-opacity:1;stroke:none;stroke-width:13.2343;paint-order:stroke fill markers"
         d="m -43.16326,-500.46715 -170,98.14845 v 196.29886 l 170,98.1504 170,-98.1504 V -402.3187 Z m 0,11.60743 151.28711,87.34571 v 8.01758 l -151.28711,-87.34376 -151.28711,87.34376 v -8.01758 z m 0,22.01953 40.54883,23.41015 a 16.657852,18.244316 0 0 0 -10.45703,11.69727 16.657852,18.244316 0 0 0 -15.94922,16.35352 h 72.40625 a 16.657852,18.244316 0 0 0 -12.03516,12.20313 16.657852,18.244316 0 0 0 -15.94921,16.35352 h 80.0332 l 12.68945,7.32617 v 9.9707 h -0.75781 a 16.657852,18.244316 0 0 0 -14.22656,-8.9043 16.657852,18.244316 0 0 0 -12.56641,6.27344 16.657852,18.244316 0 0 0 -13.3457,-7.33203 16.657852,18.244316 0 0 0 -15.85547,12.73242 16.657852,18.244316 0 0 0 -15.94922,16.35352 h 72.02734 v -0.0156 h 0.67383 v 111.50974 H 72.20198 l -39.79493,-18.2441 -39.79492,18.2441 h -71.81054 l -41.07618,-18.832 -41.07617,18.832 h -33.09961 v -109.5332 h 48.28711 a 16.657852,18.244316 0 0 0 -16.61328,-16.92383 16.657852,18.244316 0 0 0 -10.54101,4.15625 16.657852,18.244316 0 0 0 -16.42969,-15.25977 16.657852,18.244316 0 0 0 -4.70313,0.94727 v -3.97461 l 15.02344,-8.67383 h 55.51953 a 16.657852,18.244316 0 0 0 -16.61328,-16.92384 16.657852,18.244316 0 0 0 -10.54102,4.15626 16.657852,18.244316 0 0 0 -0.85742,-3.11328 z m 0.41602,6.24023 -3.61133,12.28125 a 7.2449465,7.1982049 0 0 0 -3.5,3.50977 l -12.26758,2.75586 12.51172,3.67773 a 7.2449465,7.1982049 0 0 0 3.18945,3.0293 l 2.84571,12.67187 3.77343,-12.83789 a 7.2449465,7.1982049 0 0 0 2.87305,-2.85156 l 12.73242,-2.85742 -12.52539,-3.68164 a 7.2449465,7.1982049 0 0 0 -3.24219,-3.31641 z m -41.8418,42.22266 a 16.657852,18.244316 0 0 0 -15.85547,12.73242 16.657852,18.244316 0 0 0 -15.94922,16.35353 h 101.30078 a 16.657852,18.244316 0 0 0 -16.61328,-16.92384 16.657852,18.244316 0 0 0 -10.54101,4.15626 16.657852,18.244316 0 0 0 -16.42969,-15.25978 16.657852,18.244316 0 0 0 -12.56641,6.27344 16.657852,18.244316 0 0 0 -13.3457,-7.33203 z m -46.94726,43.93946 -2.47852,7.91406 a 4.9719872,4.6388073 0 0 0 -2.40234,2.26172 l -8.41797,1.77539 8.58593,2.3711 a 4.9719872,4.6388073 0 0 0 2.18946,1.95117 l 1.95117,8.16601 2.58984,-8.27343 a 4.9719872,4.6388073 0 0 0 1.97266,-1.83594 l 8.73828,-1.8418 -8.5957,-2.37304 a 4.9719872,4.6388073 0 0 0 -2.22656,-2.13672 z m 210.46289,53.8184 -3.61133,12.2812 a 7.2449465,7.1982049 0 0 0 -3.5,3.5098 l -12.26758,2.7558 12.51172,3.6778 a 7.2449465,7.1982049 0 0 0 3.18945,3.0293 l 2.8457,12.6718 3.77344,-12.8379 a 7.2449465,7.1982049 0 0 0 2.87305,-2.8515 l 12.73242,-2.8574 -12.52539,-3.6817 a 7.2449465,7.1982049 0 0 0 -3.24219,-3.3164 z m -236.69922,3.3652 -3.61133,12.2812 a 7.2449465,7.1982049 0 0 0 -3.5,3.5098 l -12.26758,2.7559 12.51172,3.6777 a 7.2449465,7.1982049 0 0 0 3.18945,3.0312 l 2.84571,12.67 3.77343,-12.8379 a 7.2449465,7.1982049 0 0 0 2.87305,-2.8516 l 12.73242,-2.8574 -12.52539,-3.6816 a 7.2449465,7.1982049 0 0 0 -3.24219,-3.3165 z" />
    </clipPath>
  </defs>
  <sodipodi:namedview
     id="namedview1"
     pagecolor="#ffffff"
     bordercolor="#666666"
     borderopacity="1.0"
     inkscape:showpageshadow="2"
     inkscape:pageopacity="0.0"
     inkscape:pagecheckerboard="0"
     inkscape:deskcolor="#d1d1d1"
     inkscape:zoom="0.9455"
     inkscape:cx="289.79376"
     inkscape:cy="-1.5864622"
     inkscape:window-width="1920"
     inkscape:window-height="2104"
     inkscape:window-x="1898"
     inkscape:window-y="0"
     inkscape:window-maximized="0"
     inkscape:current-layer="g1" />
  <g
     inkscape:groupmode="layer"
     id="layer1"
     inkscape:label="Back">
    <g
       id="g42"
       transform="translate(2.6595199e-6,-902.2521)">
      <path
         sodipodi:type="star"
         style="mix-blend-mode:normal;fill:#81a2be;fill-opacity:1;stroke:none;stroke-width:15.1181;paint-order:stroke fill markers"
         id="path41"
         inkscape:flatsided="true"
         sodipodi:sides="6"
         sodipodi:cx="-531.7323"
         sodipodi:cy="43.376198"
         sodipodi:r1="224.2412"
         sodipodi:r2="194.19856"
         sodipodi:arg1="0.52359878"
         sodipodi:arg2="1.0471976"
         inkscape:rounded="0"
         inkscape:randomized="0"
         transform="matrix(1.0041268,0,0,1.0041268,783.92665,1108.6969)"
         d="m -337.53373,155.4968 -194.19857,112.12059 -194.19857,-112.1206 0,-224.241191 194.19857,-112.120599 194.19857,112.120601 z" />
      <g
         id="g36"
         clip-path="url(#clipPath41)">
        <circle
           style="fill:#8abeb7;fill-opacity:1;stroke-width:15.9992;paint-order:stroke fill markers"
           id="path15"
           r="258.01358"
           cy="992.99005"
           cx="250" />
        <circle
           style="fill:#b5bd68;fill-opacity:1;stroke-width:9.73864;paint-order:stroke fill markers"
           id="circle15"
           r="157.05174"
           cy="992.99005"
           cx="250" />
        <circle
           style="fill:#f0c674;fill-opacity:1;stroke-width:11.8692;paint-order:stroke fill markers"
           id="circle16"
           cx="250"
           cy="992.99005"
           r="72.448441" />
      </g>
    </g>
  </g>
  <g
     inkscape:groupmode="layer"
     inkscape:label="Image"
     id="g1"
     transform="translate(293.16326,38.889003)">
    <g
       id="g46"
       transform="translate(3.8150232,-914.35048)"
       clip-path="url(#clipPath6)">
      <path
         sodipodi:type="star"
         style="fill:#cc6666;fill-opacity:1;stroke:none;stroke-width:15.1181;paint-order:stroke fill markers"
         id="path45"
         inkscape:flatsided="true"
         sodipodi:sides="6"
         sodipodi:cx="-531.7323"
         sodipodi:cy="43.376198"
         sodipodi:r1="224.2412"
         sodipodi:r2="194.19856"
         sodipodi:arg1="0.52359878"
         sodipodi:arg2="1.0471976"
         inkscape:rounded="0"
         inkscape:randomized="0"
         d="m -337.53373,155.4968 -194.19857,112.12059 -194.19857,-112.1206 0,-224.241191 194.19857,-112.120599 194.19857,112.120601 z"
         transform="matrix(0.77902919,0,0,0.77902919,367.30725,1081.0403)" />
      <g
         id="g5"
         transform="matrix(0.93536241,0,0,1,251.46326,1236.2143)"
         style="fill:#de935f;fill-opacity:1"
         inkscape:label="g5">
        <rect
           style="fill:#de935f;fill-opacity:1;stroke-width:12.2761;paint-order:stroke fill markers"
           id="rect2"
           width="328.92651"
           height="45.087837"
           x="-483.47437"
           y="-121.62877" />
        <rect
           style="fill:#de935f;fill-opacity:1;stroke-width:7.06772;paint-order:stroke fill markers"
           id="rect3"
           width="328.92651"
           height="14.945056"
           x="-483.47437"
           y="-152.30037" />
        <rect
           style="fill:#de935f;fill-opacity:1;stroke-width:6.13024;paint-order:stroke fill markers"
           id="rect4"
           width="328.92651"
           height="11.243311"
           x="-483.47437"
           y="-179.27022" />
        <rect
           style="fill:#de935f;fill-opacity:1;stroke-width:7.06772;paint-order:stroke fill markers"
           id="rect5"
           width="328.92651"
           height="14.945056"
           x="-483.47437"
           y="-209.41301" />
      </g>
      <circle
         style="fill:#f0c674;fill-opacity:1;stroke:#282a2e;stroke-width:20.269;stroke-dasharray:none;paint-order:stroke fill markers;stroke-opacity:1"
         id="circle17"
         cx="-46.927734"
         cy="1123.2308"
         r="72.448441" />
      <rect
         style="fill:#81a2be;fill-opacity:1;stroke-width:11.8638;paint-order:stroke fill markers"
         id="rect11"
         width="307.19904"
         height="45.087837"
         x="-200.52725"
         y="1159.9709" />
      <rect
         style="fill:#8abeb7;fill-opacity:1;stroke-width:7.79711;paint-order:stroke fill markers"
         id="rect14"
         width="320.84982"
         height="18.646801"
         x="-207.35265"
         y="1158.6252" />
      <rect
         style="fill:#b294bb;fill-opacity:1;stroke:none;stroke-width:16.2818;paint-order:stroke fill markers"
         id="rect6"
         width="145.83377"
         height="43.337276"
         x="-119.84462"
         y="936.25696" />
    </g>
    <path
       id="path1"
       style="fill:#1d1f21;stroke:none;stroke-width:13.2343;paint-order:stroke fill markers;fill-opacity:1"
       d="m -43.16326,14.812145 -170,98.148445 v 196.29886 l 170,98.1504 170,-98.1504 V 112.96059 Z m 0,11.60743 151.28711,87.345705 v 8.01758 L -43.16326,34.439105 -194.45037,121.78286 v -8.01758 z m 0,22.01953 40.5488303,23.41015 A 16.657852,18.244316 0 0 0 -13.07146,83.546525 16.657852,18.244316 0 0 0 -29.02068,99.900045 H 43.38557 A 16.657852,18.244316 0 0 0 31.35041,112.10317 16.657852,18.244316 0 0 0 15.4012,128.45669 h 80.0332 l 12.68945,7.32617 v 9.9707 h -0.75781 a 16.657852,18.244316 0 0 0 -14.22656,-8.9043 16.657852,18.244316 0 0 0 -12.56641,6.27344 16.657852,18.244316 0 0 0 -13.3457,-7.33203 16.657852,18.244316 0 0 0 -15.85547,12.73242 16.657852,18.244316 0 0 0 -15.94922,16.35352 h 72.02734 v -0.0156 h 0.67383 V 276.37075 H 72.20198 l -39.79493,-18.2441 -39.7949197,18.2441 H -79.19841 l -41.07618,-18.832 -41.07617,18.832 h -33.09961 v -109.5332 h 48.28711 a 16.657852,18.244316 0 0 0 -16.61328,-16.92383 16.657852,18.244316 0 0 0 -10.54101,4.15625 16.657852,18.244316 0 0 0 -16.42969,-15.25977 16.657852,18.244316 0 0 0 -4.70313,0.94727 v -3.97461 l 15.02344,-8.67383 h 55.51953 a 16.657852,18.244316 0 0 0 -16.61328,-16.92384 16.657852,18.244316 0 0 0 -10.54102,4.15626 16.657852,18.244316 0 0 0 -0.85742,-3.11328 z m 0.41602,6.24023 -3.61133,12.28125 a 7.2449465,7.1982049 0 0 0 -3.5,3.50977 l -12.26758,2.75586 12.51172,3.67773 a 7.2449465,7.1982049 0 0 0 3.18945,3.0293 l 2.84571,12.67187 3.77343,-12.83789 a 7.2449465,7.1982049 0 0 0 2.87305,-2.85156 l 12.73242,-2.85742 -12.52539,-3.68164 a 7.2449465,7.1982049 0 0 0 -3.24219,-3.31641 z m -41.8418,42.22266 a 16.657852,18.244316 0 0 0 -15.85547,12.732415 16.657852,18.244316 0 0 0 -15.94922,16.35353 h 101.30078 a 16.657852,18.244316 0 0 0 -16.61328,-16.92384 16.657852,18.244316 0 0 0 -10.54101,4.15626 16.657852,18.244316 0 0 0 -16.42969,-15.259775 16.657852,18.244316 0 0 0 -12.56641,6.273435 16.657852,18.244316 0 0 0 -13.3457,-7.332025 z m -46.94726,43.939455 -2.47852,7.91406 a 4.9719872,4.6388073 0 0 0 -2.40234,2.26172 l -8.41797,1.77539 8.58593,2.3711 a 4.9719872,4.6388073 0 0 0 2.18946,1.95117 l 1.95117,8.16601 2.58984,-8.27343 a 4.9719872,4.6388073 0 0 0 1.97266,-1.83594 l 8.73828,-1.8418 -8.5957,-2.37304 a 4.9719872,4.6388073 0 0 0 -2.22656,-2.13672 z m 210.46289,53.8184 -3.61133,12.2812 a 7.2449465,7.1982049 0 0 0 -3.5,3.5098 l -12.26758,2.7558 12.51172,3.6778 a 7.2449465,7.1982049 0 0 0 3.18945,3.0293 l 2.8457,12.6718 3.77344,-12.8379 a 7.2449465,7.1982049 0 0 0 2.87305,-2.8515 l 12.73242,-2.8574 -12.52539,-3.6817 a 7.2449465,7.1982049 0 0 0 -3.24219,-3.3164 z m -236.69922,3.3652 -3.61133,12.2812 a 7.2449465,7.1982049 0 0 0 -3.5,3.5098 l -12.26758,2.7559 12.51172,3.6777 a 7.2449465,7.1982049 0 0 0 3.18945,3.0312 l 2.84571,12.67 3.77343,-12.8379 a 7.2449465,7.1982049 0 0 0 2.87305,-2.8516 l 12.73242,-2.8574 -12.52539,-3.6816 a 7.2449465,7.1982049 0 0 0 -3.24219,-3.3165 z" />
    <text
       xml:space="preserve"
       style="font-size:40px;line-height:1.05;font-family:'GohuFont 11 Nerd Font';-inkscape-font-specification:'GohuFont 11 Nerd Font';letter-spacing:0px;word-spacing:0px;fill:#c5c8c6;fill-opacity:1;stroke-width:1;stroke-dasharray:none"
       x="-128.61247"
       y="314.86844"
       id="text3"><tspan
         sodipodi:role="line"
         id="tspan3"
         x="-128.61247"
         y="314.86844">Tomorrow</tspan></text>
    <text
       xml:space="preserve"
       style="font-size:40px;line-height:1.05;font-family:'GohuFont 11 Nerd Font';-inkscape-font-specification:'GohuFont 11 Nerd Font';letter-spacing:0px;word-spacing:0px;fill:#969896;fill-opacity:1"
       x="-94.071465"
       y="355.98395"
       id="text4"><tspan
         sodipodi:role="line"
         id="tspan4"
         x="-94.071465"
         y="355.98395">Night</tspan></text>
  </g>
</svg>
